{
    "asset" : {
        "generator" : "Khronos glTF Blender I/O v3.3.32",
        "version" : "2.0"
    },
    "scene" : 0,
    "scenes" : [
        {
            "name" : "Scene",
            "nodes" : [
                0,
                1,
                2,
                3,
                4,
                5,
                12
            ]
        }
    ],
    "nodes" : [
        {
            "name" : "Empty",
            "rotation" : [
                0.7071068286895752,
                0,
                0,
                0.7071067094802856
            ],
            "translation" : [
                0,
                0,
                -0.1414344757795334
            ]
        },
        {
            "name" : "Empty.001",
            "rotation" : [
                0,
                -0.7071068286895752,
                0.7071068286895752,
                3.090862321641907e-08
            ]
        },
        {
            "name" : "Empty.002",
            "rotation" : [
                0.5,
                0.5,
                -0.5,
                0.5
            ]
        },
        {
            "name" : "Empty.003",
            "rotation" : [
                0.5,
                -0.5,
                0.5,
                0.5
            ]
        },
        {
            "name" : "Empty.004"
        },
        {
            "name" : "Empty.005",
            "rotation" : [
                -1,
                0,
                0,
                4.371138828673793e-08
            ]
        },
        {
            "mesh" : 0,
            "name" : "border"
        },
        {
            "mesh" : 1,
            "name" : "glass"
        },
        {
            "name" : "icon",
            "translation" : [
                0,
                -1,
                0
            ]
        },
        {
            "mesh" : 2,
            "name" : "lateral_metalic"
        },
        {
            "mesh" : 3,
            "name" : "led"
        },
        {
            "mesh" : 4,
            "name" : "logo",
            "translation" : [
                0,
                -1,
                0
            ]
        },
        {
            "children" : [
                6,
                7,
                8,
                9,
                10,
                11
            ],
            "mesh" : 5,
            "name" : "back",
            "rotation" : [
                0.7071068286895752,
                0,
                0,
                0.7071068286895752
            ]
        }
    ],
    "materials" : [
        {
            "doubleSided" : true,
            "name" : "Material.003",
            "pbrMetallicRoughness" : {
                "baseColorTexture" : {
                    "index" : 0
                },
                "roughnessFactor" : 0.5
            }
        },
        {
            "doubleSided" : true,
            "name" : "Material.001",
            "pbrMetallicRoughness" : {}
        },
        {
            "doubleSided" : true,
            "name" : "Material",
            "pbrMetallicRoughness" : {
                "baseColorFactor" : [
                    0.800000011920929,
                    0.800000011920929,
                    0.800000011920929,
                    1
                ],
                "roughnessFactor" : 0.09345048666000366
            }
        },
        {
            "doubleSided" : true,
            "name" : "Material.002",
            "pbrMetallicRoughness" : {
                "baseColorTexture" : {
                    "index" : 1
                },
                "metallicFactor" : 0,
                "roughnessFactor" : 0.5
            }
        },
        {
            "doubleSided" : true,
            "name" : "Material.004",
            "pbrMetallicRoughness" : {
                "baseColorFactor" : [
                    0,
                    0,
                    0,
                    1
                ],
                "roughnessFactor" : 0.5
            }
        }
    ],
    "meshes" : [
        {
            "name" : "Plane.003",
            "primitives" : [
                {
                    "attributes" : {
                        "POSITION" : 0,
                        "NORMAL" : 1,
                        "TEXCOORD_0" : 2
                    },
                    "indices" : 3,
                    "material" : 0
                }
            ]
        },
        {
            "name" : "Plane.004",
            "primitives" : [
                {
                    "attributes" : {
                        "POSITION" : 4,
                        "NORMAL" : 5,
                        "TEXCOORD_0" : 6
                    },
                    "indices" : 7,
                    "material" : 1
                }
            ]
        },
        {
            "name" : "Plane.002",
            "primitives" : [
                {
                    "attributes" : {
                        "POSITION" : 8,
                        "NORMAL" : 9,
                        "TEXCOORD_0" : 10
                    },
                    "indices" : 11,
                    "material" : 2
                }
            ]
        },
        {
            "name" : "Plane.005",
            "primitives" : [
                {
                    "attributes" : {
                        "POSITION" : 12,
                        "NORMAL" : 13,
                        "TEXCOORD_0" : 14
                    },
                    "indices" : 15,
                    "material" : 3
                }
            ]
        },
        {
            "name" : "Cube",
            "primitives" : [
                {
                    "attributes" : {
                        "POSITION" : 16,
                        "NORMAL" : 17,
                        "TEXCOORD_0" : 18
                    },
                    "indices" : 19,
                    "material" : 0
                }
            ]
        },
        {
            "name" : "Plane.001",
            "primitives" : [
                {
                    "attributes" : {
                        "POSITION" : 20,
                        "NORMAL" : 21,
                        "TEXCOORD_0" : 22
                    },
                    "indices" : 23,
                    "material" : 4
                }
            ]
        }
    ],
    "textures" : [
        {
            "sampler" : 0,
            "source" : 0
        },
        {
            "sampler" : 0,
            "source" : 1
        }
    ],
    "images" : [
        {
            "bufferView" : 4,
            "mimeType" : "image/png",
            "name" : "logo"
        },
        {
            "bufferView" : 17,
            "mimeType" : "image/png",
            "name" : "chatbot_uv"
        }
    ],
    "accessors" : [
        {
            "bufferView" : 0,
            "componentType" : 5126,
            "count" : 3072,
            "max" : [
                1.129419207572937,
                0.09936557710170746,
                2.3504159450531006
            ],
            "min" : [
                -1.129419207572937,
                0.08337932080030441,
                -2.3504159450531006
            ],
            "type" : "VEC3"
        },
        {
            "bufferView" : 1,
            "componentType" : 5126,
            "count" : 3072,
            "type" : "VEC3"
        },
        {
            "bufferView" : 2,
            "componentType" : 5126,
            "count" : 3072,
            "type" : "VEC2"
        },
        {
            "bufferView" : 3,
            "componentType" : 5123,
            "count" : 18432,
            "type" : "SCALAR"
        },
        {
            "bufferView" : 5,
            "componentType" : 5126,
            "count" : 638,
            "max" : [
                1.0235669612884521,
                0.10491141676902771,
                2.260453939437866
            ],
            "min" : [
                -1.0235669612884521,
                0.10491134226322174,
                -2.260453939437866
            ],
            "type" : "VEC3"
        },
        {
            "bufferView" : 6,
            "componentType" : 5126,
            "count" : 638,
            "type" : "VEC3"
        },
        {
            "bufferView" : 7,
            "componentType" : 5126,
            "count" : 638,
            "type" : "VEC2"
        },
        {
            "bufferView" : 8,
            "componentType" : 5123,
            "count" : 960,
            "type" : "SCALAR"
        },
        {
            "bufferView" : 9,
            "componentType" : 5126,
            "count" : 6144,
            "max" : [
                1.1941636800765991,
                0.10035228729248047,
                2.39621901512146
            ],
            "min" : [
                -1.1941636800765991,
                -0.10035228729248047,
                -2.39621901512146
            ],
            "type" : "VEC3"
        },
        {
            "bufferView" : 10,
            "componentType" : 5126,
            "count" : 6144,
            "type" : "VEC3"
        },
        {
            "bufferView" : 11,
            "componentType" : 5126,
            "count" : 6144,
            "type" : "VEC2"
        },
        {
            "bufferView" : 12,
            "componentType" : 5123,
            "count" : 36864,
            "type" : "SCALAR"
        },
        {
            "bufferView" : 13,
            "componentType" : 5126,
            "count" : 1788,
            "max" : [
                1.0230485200881958,
                0.10523528605699539,
                2.260453939437866
            ],
            "min" : [
                -1.0230485200881958,
                0.08023518323898315,
                -2.260453939437866
            ],
            "type" : "VEC3"
        },
        {
            "bufferView" : 14,
            "componentType" : 5126,
            "count" : 1788,
            "type" : "VEC3"
        },
        {
            "bufferView" : 15,
            "componentType" : 5126,
            "count" : 1788,
            "type" : "VEC2"
        },
        {
            "bufferView" : 16,
            "componentType" : 5123,
            "count" : 2688,
            "type" : "SCALAR"
        },
        {
            "bufferView" : 18,
            "componentType" : 5126,
            "count" : 648,
            "max" : [
                0.3116188049316406,
                0.8866011500358582,
                0.31161877512931824
            ],
            "min" : [
                -0.3116188049316406,
                0.8331069350242615,
                -0.311618834733963
            ],
            "type" : "VEC3"
        },
        {
            "bufferView" : 19,
            "componentType" : 5126,
            "count" : 648,
            "type" : "VEC3"
        },
        {
            "bufferView" : 20,
            "componentType" : 5126,
            "count" : 648,
            "type" : "VEC2"
        },
        {
            "bufferView" : 21,
            "componentType" : 5123,
            "count" : 1284,
            "type" : "SCALAR"
        },
        {
            "bufferView" : 22,
            "componentType" : 5126,
            "count" : 2625,
            "max" : [
                1.1294193267822266,
                -0.06022754684090614,
                2.3504159450531006
            ],
            "min" : [
                -1.1294194459915161,
                -0.13906079530715942,
                -2.3504159450531006
            ],
            "type" : "VEC3"
        },
        {
            "bufferView" : 23,
            "componentType" : 5126,
            "count" : 2625,
            "type" : "VEC3"
        },
        {
            "bufferView" : 24,
            "componentType" : 5126,
            "count" : 2625,
            "type" : "VEC2"
        },
        {
            "bufferView" : 25,
            "componentType" : 5123,
            "count" : 15360,
            "type" : "SCALAR"
        }
    ],
    "bufferViews" : [
        {
            "buffer" : 0,
            "byteLength" : 36864,
            "byteOffset" : 0,
            "target" : 34962
        },
        {
            "buffer" : 0,
            "byteLength" : 36864,
            "byteOffset" : 36864,
            "target" : 34962
        },
        {
            "buffer" : 0,
            "byteLength" : 24576,
            "byteOffset" : 73728,
            "target" : 34962
        },
        {
            "buffer" : 0,
            "byteLength" : 36864,
            "byteOffset" : 98304,
            "target" : 34963
        },
        {
            "buffer" : 0,
            "byteLength" : 36100,
            "byteOffset" : 135168
        },
        {
            "buffer" : 0,
            "byteLength" : 7656,
            "byteOffset" : 171268,
            "target" : 34962
        },
        {
            "buffer" : 0,
            "byteLength" : 7656,
            "byteOffset" : 178924,
            "target" : 34962
        },
        {
            "buffer" : 0,
            "byteLength" : 5104,
            "byteOffset" : 186580,
            "target" : 34962
        },
        {
            "buffer" : 0,
            "byteLength" : 1920,
            "byteOffset" : 191684,
            "target" : 34963
        },
        {
            "buffer" : 0,
            "byteLength" : 73728,
            "byteOffset" : 193604,
            "target" : 34962
        },
        {
            "buffer" : 0,
            "byteLength" : 73728,
            "byteOffset" : 267332,
            "target" : 34962
        },
        {
            "buffer" : 0,
            "byteLength" : 49152,
            "byteOffset" : 341060,
            "target" : 34962
        },
        {
            "buffer" : 0,
            "byteLength" : 73728,
            "byteOffset" : 390212,
            "target" : 34963
        },
        {
            "buffer" : 0,
            "byteLength" : 21456,
            "byteOffset" : 463940,
            "target" : 34962
        },
        {
            "buffer" : 0,
            "byteLength" : 21456,
            "byteOffset" : 485396,
            "target" : 34962
        },
        {
            "buffer" : 0,
            "byteLength" : 14304,
            "byteOffset" : 506852,
            "target" : 34962
        },
        {
            "buffer" : 0,
            "byteLength" : 5376,
            "byteOffset" : 521156,
            "target" : 34963
        },
        {
            "buffer" : 0,
            "byteLength" : 76141,
            "byteOffset" : 526532
        },
        {
            "buffer" : 0,
            "byteLength" : 7776,
            "byteOffset" : 602676,
            "target" : 34962
        },
        {
            "buffer" : 0,
            "byteLength" : 7776,
            "byteOffset" : 610452,
            "target" : 34962
        },
        {
            "buffer" : 0,
            "byteLength" : 5184,
            "byteOffset" : 618228,
            "target" : 34962
        },
        {
            "buffer" : 0,
            "byteLength" : 2568,
            "byteOffset" : 623412,
            "target" : 34963
        },
        {
            "buffer" : 0,
            "byteLength" : 31500,
            "byteOffset" : 625980,
            "target" : 34962
        },
        {
            "buffer" : 0,
            "byteLength" : 31500,
            "byteOffset" : 657480,
            "target" : 34962
        },
        {
            "buffer" : 0,
            "byteLength" : 21000,
            "byteOffset" : 688980,
            "target" : 34962
        },
        {
            "buffer" : 0,
            "byteLength" : 30720,
            "byteOffset" : 709980,
            "target" : 34963
        }
    ],
    "samplers" : [
        {
            "magFilter" : 9729,
            "minFilter" : 9987
        }
    ],
    "buffers" : [
        {
            "byteLength" : 740700,
            "uri" : "data:application/octet-stream;base64,"
        }
    ]
}
